<?xml version="1.0" encoding="UTF-8"?>
<svg id="Layer_1" data-name="Layer 1" xmlns="http://www.w3.org/2000/svg" viewBox="0 0 506.52 202.61">
  <defs>
    <style>
      .cls-1 {
        fill: #fff;
        fill-rule: evenodd;
        stroke-width: 0px;
      }
    </style>
  </defs>
  <path class="cls-1" d="m67.54,56.49l-11.68-12.61,11.67-12.64V.01S0,.02,0,.02l.02,87.87h67.54l-.02-31.4h0Zm-12.15,2.05v18.31s-43.23,0-43.23,0V11.07h43.22s-.01,18.29-.01,18.29l-12.13,14.52,12.15,14.67h0Zm-4.42,1.42v12.78s-34.38,0-34.38,0l-.02-26.82h22.89s11.51,14.04,11.51,14.04h0Zm-16.88-7.25l5.06,5.68v6.3h-10.73s0-11.98,0-11.98h5.68ZM50.96,15.16v12.77l-11.52,13.89h-22.88s0-26.66,0-26.66h34.39Zm-11.84,8.04v6.32l-5.04,5.69h-5.67v-12s10.71,0,10.71,0h0Zm93.63,20.37L145.83.01h-28.41l-7.07,30.13h-3.17S100.06.01,100.06.01h-28.39s13.11,43.54,13.11,43.54l-14.18,44.34h28.41s8.03-30.92,8.03-30.92h3.47s8.07,30.94,8.07,30.94l28.39-.02-14.21-44.32h0Zm-1.42,33.29h-4.72l-9.48-31.25h-16.73s-9.45,31.25-9.45,31.25h-4.74s9.93-33.15,9.93-33.15l-9.16-32.66h4.72s8.55,30.46,8.55,30.46h17.04s8.5-30.46,8.5-30.46h4.74l-9.15,32.52,9.95,33.29h0ZM217.99.01h-28.4s0,30.93,0,30.93h-10.72s-.02-30.93-.02-30.93h-28.41s.03,55.55.03,55.55h39.13s0,7.71,0,7.71h-39.13s.01,24.62.01,24.62h67.53s-.01-87.89-.01-87.89h0Zm-12.15,11.03v65.8h-44.33s0-4.09,0-4.09h39.91v-27.62l-38.81.02V11.06h4.41s0,29.98,0,29.98h34.39V11.05s4.42,0,4.42,0h0ZM289.17,0l-65.63.02v26.8h18.45v61.06s28.72,0,28.72,0V26.82s18.45,0,18.45,0V0h0Zm-11.03,11.04v4.11s-19.56,0-19.56,0v61.69s-4.41,0-4.41,0V15.16h-19.57v-4.11h43.54Zm77.18,53.48h-32.18s0-10.41,0-10.41h16.09s0-20.53,0-20.53h-16.09s0-10.24,0-10.24h32.18s0-23.34,0-23.34h-60.58s.01,87.88.01,87.88l60.57-.02v-23.34h0Zm-44.01,8.2h32.97s0,4.1,0,4.1h-37.4s0-65.78,0-65.78h37.39s0,4.1,0,4.1h-32.97s-.01,26.67-.01,26.67l16.88-.02v4.11s-16.88,0-16.88,0v26.82h0ZM429.49,0h-24.3l-17.03,36.59V0h-24.94l.02,87.86h24.3l17.02-36.6v36.6s24.94-.01,24.94-.01L429.49,0h0Zm-51.58,11.04l.02,61.52h1.73s30.42-61.52,30.42-61.52h9.14l.03,65.77h-4.43l-.02-61.67h-1.74l-30.4,61.68h-9.16s0-65.78,0-65.78h4.42ZM506.5,0h-28.42s.03,30.13.03,30.13h-10.73l-.02-30.12h-28.38s.03,87.85.03,87.85h28.4s-.02-30.9-.02-30.9h10.73s.01,30.9.01,30.9h28.39l-.02-87.86h0Zm-12.15,11.05l.02,65.77h-4.43v-31.22h-34.38l.02,31.22h-4.42s-.01-65.78-.01-65.78h4.41v30.45s34.39,0,34.39,0V11.04s4.41,0,4.41,0Z"/>
  <path class="cls-1" d="m.01,115.99h21.13v12.59l-3.91,3.15,3.91,3.15v12.59H.01v-31.46H.01Zm14.38,6.74h-7.64v5.84h5.21l2.43-2.29v-3.55h0Zm-7.64,12.14v5.84h7.64v-3.55l-2.43-2.29h-5.21Zm17.98,12.59v-31.46h6.74v11.55h13.93v19.91h-20.68Zm6.74-13.17v6.43h7.19v-6.43h-7.19Zm16.06-18.29h6.74v31.46h-6.74v-31.46h0Zm10.34,0h21.13v9.8h-6.74v-3.06h-7.64v17.98h7.64v-3.06h6.74v9.8h-21.13v-31.46h0Zm24.41,31.46v-31.46h6.74v24.72h5.62v-24.72h6.74v24.72h5.62v-24.72h6.74v31.46h-31.47Zm50.84-31.46h6.74v31.46h-6.74v-18.79l-8.9,18.79h-6.74v-31.46h6.74v18.79l8.9-18.79h0Zm25.98,0h6.74v31.46h-6.74v-18.79l-8.9,18.79h-6.74v-31.46h6.74v18.79l8.9-18.79h0Zm-10.07-8.36h11.24v5.62h-11.24v-5.62h0Zm44.13,27.33h-1.8l-4.14,12.5h-7.19l5.8-15.87-3.01-8.85-2.34-6.74h7.19l3.69,12.23h1.8l3.69-12.23h7.19l-5.35,15.6,5.8,15.87h-7.19l-4.14-12.5h0Zm13.63-18.97h6.74v12.9h7.42v-12.9h6.74v31.46h-20.9v-6.74h14.16v-5.08h-14.16v-19.64h0Zm29.17,0h16.99v24.72h2.61l-.95,10.88h-6.74l.95-4.14h-12.05l-.95,4.14h-6.74l.95-10.88h2.61l3.33-24.72h0Zm3.24,24.72h7.01v-17.98h-4.54l-2.47,17.98h0Zm18.38-24.72h21.13v31.46h-21.13v-31.46h0Zm6.74,6.74v17.98h7.64v-17.98h-7.64Zm37.49,12.23v12.5h-6.74v-12.5h-1.8l-6.02,12.5h-7.19l7.82-16.27-7.37-15.19h6.88l5.89,12.23h1.8v-12.23h6.74v12.23h1.8l5.89-12.23h6.88l-7.37,15.19,7.82,16.27h-7.19l-6.02-12.5h-1.8Zm16.36-18.97h20.68v6.74h-13.93v5.62h7.1v6.74h-7.1v5.62h13.93v6.74h-20.68v-31.46h0Zm23.6,0h21.13v9.8h-6.74v-3.06h-7.64v17.98h7.64v-3.06h6.74v9.8h-21.13v-31.46h0Zm22.7,0h21.13v6.74h-7.19v24.72h-6.74v-24.72h-7.19v-6.74h0Zm23.15,0h21.13v12.59l-3.91,3.15,3.91,3.15v12.59h-21.13v-31.46h0Zm14.38,6.74h-7.64v5.84h5.21l2.43-2.29v-3.55h0Zm-7.64,12.14v5.84h7.64v-3.55l-2.43-2.29h-5.21Zm17.98-18.88h20.68v6.74h-13.93v5.62h7.1v6.74h-7.1v5.62h13.93v6.74h-20.68v-31.46h0Zm23.6,0h6.74v12.23h7.64v-12.23h6.74v31.46h-6.74v-12.5h-7.64v12.5h-6.74v-31.46h0Zm24.72,0h6.74v12.23h7.64v-12.23h6.74v31.46h-6.74v-12.5h-7.64v12.5h-6.74v-31.46h0Zm24.72,0h21.13v31.46h-21.13v-31.46h0Zm6.74,6.74v17.98h7.64v-17.98h-7.64ZM.01,171.14h21.13v6.74h-7.19v24.72h-6.74v-24.72H.01v-6.74H.01Zm24.52,0h20.68v6.74h-13.93v5.62h7.1v6.74h-7.1v5.62h13.93v6.74h-20.68v-31.46h0Zm36.65,18.97h-1.8l-4.13,12.5h-7.19l5.8-15.87-3.01-8.85-2.34-6.74h7.19l3.69,12.23h1.8l3.69-12.23h7.19l-5.35,15.6,5.8,15.87h-7.19l-4.14-12.5h0Zm14.05-18.97h6.74v12.23h7.64v-12.23h6.74v31.46h-6.74v-12.5h-7.64v12.5h-6.74v-31.46h0Zm41.73,0h6.74v31.46h-6.74v-18.79l-8.9,18.79h-6.74v-31.46h6.74v18.79l8.9-18.79h0Zm11.35,0h6.74v13.93h7.19v-13.93h6.74v31.46h-6.74v-10.79h-13.93v-20.68h0Zm25.64,0h20.68v6.74h-13.93v5.62h7.1v6.74h-7.1v5.62h13.93v6.74h-20.68v-31.46h0Zm24.97,0h21.13v9.8h-6.74v-3.06h-7.64v17.98h7.64v-3.06h6.74v9.8h-21.13v-31.46h0Zm32.38,18.97v12.5h-6.74v-31.46h6.74v12.23h3.1l5.89-12.23h7.1l-7.6,15.19,8.05,16.27h-7.42l-6.02-12.5h-3.1Zm34.9-18.97h6.74v31.46h-6.74v-18.79l-8.9,18.79h-6.74v-31.46h6.74v18.79l8.9-18.79h0Zm27.35,0h6.74v31.46h-6.74v-18.79l-8.9,18.79h-6.74v-31.46h6.74v18.79l8.9-18.79h0Zm-10.07-8.36h11.24v5.62h-11.24v-5.62h0Zm61.37,8.36h6.74v31.46h-6.74v-18.79l-8.9,18.79h-6.74v-31.46h6.74v18.79l8.9-18.79h0Zm11.71,0h6.74v12.23h7.64v-12.23h6.74v31.46h-6.74v-12.5h-7.64v12.5h-6.74v-31.46h0Zm26.09,0h21.13v9.8h-6.74v-3.06h-7.64v17.98h7.64v-3.06h6.74v9.8h-21.13v-31.46h0Zm24.07,0h21.13v6.74h-7.19v24.72h-6.74v-24.72h-7.19v-6.74h0Zm40.16,0h6.74v31.46h-6.74v-18.79l-8.9,18.79h-6.74v-31.46h6.74v18.79l8.9-18.79h0Zm10.13,0h21.13v6.74h-7.19v24.72h-6.74v-24.72h-7.19v-6.74h0Zm24.07,0h6.74v12.9h7.42v-12.9h6.74v31.46h-20.9v-6.74h14.16v-5.08h-14.16v-19.64h0Zm24.29,0h21.13v6.74h-7.19v24.72h-6.74v-24.72h-7.19v-6.74Z"/>
</svg>