<?xml version="1.0" encoding="UTF-8"?>
<svg id="_Слой_1" data-name="Слой 1" xmlns="http://www.w3.org/2000/svg" viewBox="0 0 400 400">
  <defs>
    <style>
      .cls-1 {
        fill: #fff;
        stroke-width: 0px;
      }
    </style>
  </defs>
  <path class="cls-1" d="m200,0C89.54,0,0,89.54,0,200s89.54,200,200,200,200-89.54,200-200S310.46,0,200,0Zm110.29,280h-26.18c-9.92,0-13.06-9.82-30.36-30-15-17.5-22.77-20-26.58-20-5.34,0-7.17,1.33-7.18,9.34v29.72c0,6.67-1.72,10.94-18.5,10.94-27.7,0-58.99-18.75-82.74-51.25-32.75-44.82-38.75-83.8-38.75-91.01,0-4,1.27-7.74,8.9-7.74h26.43c6.61,0,9.15,2.94,11.69,10.68,11.73,39.32,29.25,69.32,38.15,69.32,3.3,0,4.83-1.6,4.83-10.4v-36.23c-1.02-18.69-10-20.29-10-26.96,0-3.21,2.12-6.41,6.19-6.41h46.49c5.59,0,7.32,3.2,7.32,10.14v51.85c0,5.87,4.47,8.01,6.24,8.01,3.3,0,6.4.16,12.5-6.25,18.81-22.15,35.13-55.74,35.13-55.74,1.78-4.01,4.83-8.01,11.44-8.01h26.18c5.86,0,8.35,2.63,8.5,6.25.06,1.25-.16,2.65-.62,4.16-3.3,16.01-37.14,63.52-36.88,63.52-1.44,2.46-2.4,4.22-2.49,6.07-.09,1.76.62,3.6,2.49,6.21,2.79,4,8.86,11.36,15.01,18.79,11.1,13.42,20,27.5,21.94,33.26.41,1.57.59,2.98.56,4.24-.14,4.95-3.63,7.5-9.71,7.5Z"/>
</svg>